<svg width="1200" height="800" viewBox="0 0 1200 800" fill="none" xmlns="http://www.w3.org/2000/svg">
  <defs>
    <linearGradient id="g" x1="0" y1="0" x2="1" y2="1">
      <stop offset="0%" stop-color="#818CF8"/>
      <stop offset="100%" stop-color="#A78BFA"/>
    </linearGradient>
  </defs>
  <g fill="url(#g)" fill-opacity="0.9">
    <circle cx="80" cy="120" r="10"/>
    <circle cx="210" cy="80" r="8"/>
    <circle cx="360" cy="160" r="14"/>
    <circle cx="520" cy="60" r="9"/>
    <circle cx="700" cy="120" r="12"/>
    <circle cx="860" cy="90" r="7"/>
    <circle cx="1040" cy="150" r="10"/>

    <circle cx="140" cy="320" r="12"/>
    <circle cx="310" cy="300" r="8"/>
    <circle cx="480" cy="360" r="15"/>
    <circle cx="640" cy="300" r="10"/>
    <circle cx="820" cy="340" r="13"/>
    <circle cx="1000" cy="320" r="9"/>

    <circle cx="220" cy="560" r="14"/>
    <circle cx="400" cy="520" r="10"/>
    <circle cx="580" cy="600" r="16"/>
    <circle cx="760" cy="540" r="11"/>
    <circle cx="940" cy="580" r="14"/>
  </g>
  <g stroke="url(#g)" stroke-opacity="0.35">
    <path d="M0 200 Q300 100 600 200 T1200 200"/>
    <path d="M0 400 Q300 300 600 400 T1200 400"/>
    <path d="M0 600 Q300 500 600 600 T1200 600"/>
  </g>
</svg>
